<svg width="1075" height="214" viewBox="0 0 1075 214" fill="none" xmlns="http://www.w3.org/2000/svg">
<g clip-path="url(#clip0_1531_9426)">
<path d="M271.96 26.8999C270.706 26.8999 269.526 26.7522 268.419 26.4567C267.313 26.1612 266.28 25.718 265.37 25.1024C264.46 24.5115 263.698 23.7481 263.108 22.8617C262.517 21.9753 262.149 20.9411 261.976 19.7591H265.394C265.616 20.7195 266.034 21.532 266.649 22.1969C267.288 22.8617 268.05 23.3542 268.985 23.6743C269.919 23.9944 270.952 24.1667 272.058 24.1667C273.165 24.1667 274.149 23.9944 275.058 23.6497C275.968 23.3049 276.706 22.8125 277.247 22.1476C277.788 21.4828 278.083 20.7195 278.083 19.7838C278.083 18.7742 277.763 17.9616 277.099 17.3461C276.435 16.7305 275.427 16.238 274.05 15.844L268.788 14.4897C267.608 14.1943 266.55 13.7756 265.64 13.2339C264.731 12.6922 264.017 12.0028 263.501 11.1163C262.985 10.2299 262.714 9.14645 262.714 7.8414C262.714 6.38862 263.108 5.13282 263.919 4.04939C264.731 2.96596 265.813 2.12877 267.165 1.5378C268.542 0.94684 270.091 0.651367 271.812 0.651367C273.804 0.651367 275.501 0.996091 276.878 1.68555C278.255 2.375 279.288 3.28607 280.001 4.41875C280.714 5.55143 281.058 6.75798 281.058 8.0384H277.714C277.616 6.8811 277.272 5.9454 276.681 5.28057C276.116 4.59111 275.378 4.12327 274.517 3.80316C273.657 3.50768 272.722 3.35994 271.714 3.35994C269.894 3.35994 268.517 3.77854 267.583 4.61573C266.649 5.45293 266.181 6.43787 266.181 7.57055C266.181 8.62935 266.526 9.44193 267.19 10.0329C267.854 10.6239 268.837 11.0917 270.165 11.4364L275.28 12.7661C276.804 13.1108 278.009 13.6279 278.894 14.2927C279.804 14.9576 280.444 15.7455 280.837 16.632C281.231 17.5184 281.427 18.4787 281.427 19.5129C281.427 20.9165 281.034 22.1969 280.247 23.3049C279.46 24.413 278.353 25.2748 276.952 25.915C275.526 26.5552 273.878 26.8507 271.96 26.8507V26.8999Z" fill="#171716"/>
<path d="M286.591 26.5306V0.971436H289.862V26.5306H286.591Z" fill="#171716"/>
<path d="M296.231 26.5306V0.971436H300.755L308.452 22.0737L316.247 0.971436H320.747V26.5306H317.378V5.8715L309.976 26.5306H306.927L299.599 6.06849V26.5306H296.255H296.231Z" fill="#171716"/>
<path d="M327.116 26.5306V0.971436H335.747C337.567 0.971436 339.19 1.26692 340.616 1.88251C342.042 2.4981 343.149 3.40916 343.985 4.59108C344.796 5.79763 345.214 7.27504 345.214 9.0233C345.214 10.7716 344.845 12.1751 344.083 13.3816C343.321 14.5882 342.263 15.4993 340.911 16.1149C339.558 16.7304 337.985 17.0505 336.189 17.0505H330.46V26.5059H327.116V26.5306ZM330.46 14.342H336.116C337.862 14.342 339.288 13.8495 340.394 12.8646C341.501 11.8796 342.042 10.55 342.042 8.87556C342.042 7.20117 341.476 5.89613 340.345 5.03431C339.214 4.17249 337.763 3.72927 335.968 3.72927H330.46V14.342Z" fill="#171716"/>
<path d="M349.222 26.5306V0.971436H352.567V23.5757H364.616V26.5059H349.222V26.5306Z" fill="#171716"/>
<path d="M369.263 26.5306V0.971436H385.345V3.85238H372.534V12.1997H384.042V15.056H372.509V23.5757H385.665V26.5306H369.239H369.263Z" fill="#171716"/>
<path d="M390.804 26.5306V0.971436H400.689C402.534 0.971436 404.058 1.24229 405.288 1.80863C406.517 2.37497 407.452 3.16292 408.067 4.22173C408.681 5.25591 408.976 6.51171 408.976 7.96449C408.976 9.41727 408.73 10.5007 408.239 11.4364C407.747 12.3475 407.132 13.0862 406.37 13.6525C405.608 14.2188 404.845 14.6374 404.009 14.9575L409.026 26.5552H405.558L400.911 15.5485H394.05V26.5552H390.78L390.804 26.5306ZM394.05 12.8399H399.608C401.526 12.8399 403.001 12.446 404.058 11.658C405.116 10.8701 405.632 9.71276 405.632 8.16148C405.632 6.61021 405.165 5.52678 404.23 4.78807C403.296 4.04937 402.017 3.65539 400.394 3.65539H394.05V12.8153V12.8399Z" fill="#171716"/>
<path d="M315.312 161.59C304.542 161.59 295.149 159.128 287.132 154.228C279.116 149.328 272.894 142.433 268.517 133.569C264.116 124.704 261.927 114.362 261.927 102.518C261.927 90.6746 264.239 79.7911 268.886 70.8281C273.534 61.8652 279.976 54.9214 288.239 50.0213C296.501 45.1213 306.067 42.6589 316.935 42.6589C324.239 42.6589 330.853 43.7916 336.804 46.057C342.755 48.3223 347.87 51.4003 352.149 55.2908C356.427 59.1813 359.747 63.5888 362.108 68.5382C364.444 73.4628 365.698 78.5845 365.87 83.8539H337.345C336.608 80.4313 335.329 77.3287 333.558 74.5217C331.763 71.7146 329.427 69.4985 326.526 67.8487C323.624 66.1989 320.231 65.3617 316.345 65.3617C311.87 65.3617 307.763 66.5437 304.026 68.8829C300.288 71.2221 297.313 75.0634 295.075 80.3574C292.837 85.6761 291.731 92.7676 291.731 101.681C291.731 109.044 292.493 115.076 294.017 119.78C295.542 124.483 297.558 128.127 300.042 130.737C302.55 133.347 305.329 135.169 308.353 136.228C311.378 137.262 314.427 137.779 317.476 137.779C320.304 137.779 322.837 137.336 325.099 136.425C327.362 135.514 329.329 134.357 331.001 132.904C332.673 131.476 334.05 129.9 335.108 128.176C336.165 126.452 336.853 124.753 337.198 123.054L338.403 117.465H316.345V98.8988L367.001 99.1451V159.965H348.78V146.053C346.862 148.343 344.501 150.682 341.698 153.095C338.894 155.508 335.403 157.503 331.198 159.128C326.993 160.753 321.706 161.565 315.362 161.565L315.312 161.59Z" fill="#171716"/>
<path d="M382.124 159.99V77.2548H408.337V98.4556C409.616 94.1465 411.46 90.256 413.894 86.8087C416.329 83.3614 419.329 80.6529 422.894 78.6584C426.46 76.6639 430.591 75.6543 435.288 75.6543C435.878 75.6543 436.394 75.6543 436.837 75.7036C437.28 75.7282 437.575 75.8021 437.673 75.9005V101.755C437.403 101.657 437.083 101.558 436.665 101.509C436.271 101.46 435.853 101.435 435.435 101.435C430.222 100.893 425.919 100.992 422.526 101.681C419.132 102.371 416.476 103.503 414.534 105.03C412.591 106.581 411.239 108.428 410.452 110.546C409.689 112.688 409.296 115.003 409.296 117.514V160.014H382.124V159.99Z" fill="#171716"/>
<path d="M469.96 161.59C464.747 161.59 459.976 160.58 455.698 158.586C451.419 156.592 448.025 153.661 445.517 149.82C443.009 145.979 441.755 141.276 441.755 135.735C441.755 126.723 445.222 119.779 452.157 114.929C459.091 110.078 469.96 107.616 484.763 107.566L493.148 107.492V103.257C493.148 100.007 492.239 97.5692 490.394 95.944C488.55 94.3189 485.698 93.5309 481.812 93.5802C479.034 93.6294 476.255 94.2942 473.427 95.55C470.599 96.8058 468.607 99.1204 467.427 102.469H445.124C445.444 96.2395 447.288 91.1424 450.632 87.1781C454.001 83.2383 458.476 80.3328 464.107 78.4614C469.739 76.59 476.034 75.6543 483.017 75.6543C492.066 75.6543 499.247 76.7377 504.509 78.9046C509.771 81.0715 513.558 84.0755 515.821 87.9414C518.083 91.8073 519.214 96.3626 519.214 101.583V160.014H496.591L494.28 146.324C491.673 152.135 488.403 156.148 484.444 158.34C480.485 160.531 475.689 161.615 469.985 161.615L469.96 161.59ZM479.304 144.058C481.124 144.058 482.845 143.738 484.493 143.098C486.14 142.458 487.616 141.571 488.894 140.414C490.173 139.257 491.181 138.001 491.919 136.622C492.657 135.243 493.075 133.741 493.124 132.14V120.863L486.411 120.937C483.632 120.937 480.78 121.306 477.829 122.069C474.878 122.808 472.394 124.064 470.353 125.788C468.337 127.511 467.329 129.9 467.329 132.953C467.329 136.425 468.534 139.133 470.919 141.103C473.304 143.073 476.107 144.058 479.304 144.058Z" fill="#171716"/>
<path d="M531.509 159.99V77.2548H558.362V88.8524C559.542 86.9318 561.091 85.0358 563.034 83.1644C564.976 81.2931 567.46 79.7418 570.46 78.5352C573.46 77.3041 577.124 76.6885 581.452 76.6885C586.394 76.6885 591.091 77.6488 595.468 79.5694C599.87 81.49 603.435 84.5434 606.214 88.7293C608.993 92.9153 610.37 98.4063 610.37 105.178V159.99H583.025V108.773C583.025 105.153 581.845 102.42 579.509 100.573C577.173 98.7264 574.468 97.8154 571.444 97.8154C569.427 97.8154 567.411 98.2093 565.444 98.9727C563.476 99.736 561.853 100.893 560.575 102.42C559.296 103.947 558.657 105.843 558.657 108.133V159.99H531.485H531.509Z" fill="#171716"/>
<path d="M660.558 161.024C652.616 161.024 646.468 160.014 642.14 158.02C637.788 156.025 634.788 153.267 633.116 149.771C631.443 146.274 630.607 142.31 630.607 137.878V95.8702H617.181V77.2303H631.566L638.525 51.8682H657.78V77.0826H675.927V95.8949H657.78L657.853 136.721C657.853 138.37 658.099 139.601 658.616 140.414C659.132 141.202 659.821 141.744 660.73 142.015C661.64 142.285 662.722 142.409 664.001 142.409H676.075V158.808C674.943 159.276 673.222 159.793 670.886 160.285C668.525 160.802 665.107 161.048 660.583 161.048L660.558 161.024Z" fill="#171716"/>
<path d="M723.534 161.59C717.78 161.59 712.173 160.63 706.665 158.709C701.181 156.789 696.484 153.711 692.599 149.5C688.714 145.29 686.206 139.798 685.075 133.002H708.411C709.099 135.834 710.353 138.001 712.173 139.478C713.993 140.98 715.911 141.99 717.976 142.507C720.017 143.049 721.812 143.32 723.361 143.32C727.296 143.32 730.493 142.753 732.952 141.645C735.411 140.513 736.616 138.814 736.616 136.524C736.616 134.603 735.853 133.101 734.329 131.993C732.804 130.909 730.148 130.023 726.386 129.383L713.034 126.896C705.411 125.468 699.288 122.808 694.64 118.942C690.017 115.077 687.657 109.586 687.607 102.494C687.558 97.4216 688.911 92.8662 691.689 88.8034C694.443 84.7405 698.525 81.5394 703.911 79.151C709.296 76.7871 715.861 75.5806 723.657 75.5806C734.427 75.5806 742.96 77.9198 749.304 82.6229C755.648 87.3259 758.845 93.8019 758.894 102.075H736.517C735.927 99.2437 734.427 97.1014 731.993 95.624C729.558 94.1466 726.681 93.4326 723.312 93.4326C719.943 93.4326 717.042 93.9989 714.73 95.1562C712.419 96.3135 711.263 98.0125 711.263 100.327C711.263 102.075 712.271 103.504 714.312 104.562C716.329 105.621 719.55 106.581 723.976 107.443L736.05 109.93C740.993 111.161 745.025 112.811 748.124 114.855C751.222 116.899 753.607 119.139 755.28 121.528C756.952 123.941 758.107 126.305 758.722 128.693C759.337 131.057 759.657 133.15 759.657 134.972C759.657 140.685 758.107 145.511 754.984 149.451C751.861 153.391 747.583 156.395 742.124 158.463C736.665 160.507 730.468 161.541 723.534 161.541V161.59Z" fill="#171716"/>
<path d="M771.411 159.99V131.574H800.575V159.99H771.411Z" fill="#171716"/>
<path d="M856.616 187.346C841.124 187.346 829.468 185.5 821.648 181.781C813.853 178.063 809.943 173.36 809.943 167.648C809.943 164.865 810.706 162.575 812.23 160.778C813.755 158.955 815.525 157.527 817.542 156.444C819.558 155.385 821.427 154.597 823.148 154.08C824.845 153.563 825.902 153.243 826.271 153.07C825.411 152.652 824.132 151.938 822.386 150.977C820.665 150.017 819.042 148.663 817.542 146.89C816.042 145.117 815.304 142.827 815.304 140.02C815.304 136.868 816.779 133.987 819.73 131.328C822.681 128.693 827.206 126.92 833.279 126.009C827.575 123.399 823.296 119.829 820.419 115.298C817.542 110.767 816.091 106.261 816.091 101.78C816.091 96.2888 817.911 91.6104 821.575 87.7445C825.238 83.8786 830.107 80.9484 836.23 78.9293C842.353 76.9102 849.165 75.9252 856.689 75.9252C862.443 75.9252 867.14 76.5162 870.755 77.7228C874.37 78.9293 877.738 80.4067 880.837 82.155C882.214 81.6133 883.96 80.9484 886.025 80.1112C888.115 79.274 890.353 78.4122 892.788 77.4765C895.222 76.5408 897.607 75.5805 899.968 74.5956C902.329 73.6106 904.542 72.7242 906.558 71.9116L906.386 92.0044L892.247 94.0727C892.665 95.4024 893.009 96.8059 893.255 98.2833C893.501 99.7607 893.624 100.893 893.624 101.681C893.624 106.384 892.173 110.866 889.271 115.126C886.37 119.386 882.017 122.882 876.238 125.566C870.46 128.25 863.329 129.604 854.87 129.604C853.738 129.604 852.189 129.555 850.148 129.481C848.132 129.407 846.509 129.309 845.279 129.21C843.312 129.358 841.96 129.654 841.198 130.048C840.46 130.442 840.066 130.959 840.066 131.599C840.066 132.83 841.271 133.593 843.657 133.889C846.042 134.184 849.46 134.48 853.886 134.8C855.484 134.849 857.796 134.948 860.796 135.12C863.796 135.292 867.115 135.489 870.755 135.76C881.525 136.499 889.468 139.109 894.583 143.615C899.697 148.097 902.255 153.563 902.255 160.014C902.255 167.918 898.468 174.419 890.87 179.59C883.271 184.761 871.861 187.322 856.616 187.322V187.346ZM860.919 172.621C866.894 172.621 870.952 171.981 873.14 170.701C875.329 169.42 876.411 167.672 876.411 165.407C876.411 163.141 875.427 161.541 873.46 160.211C871.493 158.882 868.665 158.094 864.976 157.897L848.034 156.789C845.378 156.616 843.165 156.912 841.443 157.675C839.722 158.414 838.443 159.399 837.657 160.63C836.87 161.861 836.452 163.141 836.452 164.471C836.452 167.524 838.443 169.642 842.402 170.824C846.361 172.03 852.534 172.621 860.894 172.621H860.919ZM855.73 114.929C859.394 114.929 862.37 113.796 864.607 111.555C866.845 109.315 867.976 106.36 867.976 102.666C867.976 98.9728 866.845 95.8456 864.607 93.3833C862.37 90.9209 859.419 89.6897 855.73 89.6897C852.042 89.6897 849.066 90.9209 846.779 93.4079C844.493 95.8949 843.337 98.9728 843.337 102.642C843.337 106.311 844.468 109.216 846.706 111.481C848.943 113.747 851.943 114.88 855.73 114.88V114.929Z" fill="#171716"/>
<path d="M951.066 161.59C942.755 161.59 935.525 159.817 929.402 156.271C923.279 152.726 918.533 147.752 915.165 141.399C911.82 135.021 910.124 127.585 910.124 119.115C910.124 110.644 911.845 102.888 915.288 96.338C918.73 89.8128 923.525 84.7157 929.673 81.0961C935.82 77.4764 943.001 75.6543 951.214 75.6543C959.427 75.6543 966.804 77.4764 972.902 81.1453C979.001 84.7896 983.722 89.8866 987.042 96.4365C990.361 102.962 992.033 110.546 992.033 119.115C992.033 127.684 990.386 134.701 987.066 141.079C983.771 147.456 979.05 152.479 972.927 156.124C966.804 159.768 959.501 161.615 951.042 161.615L951.066 161.59ZM951.214 141.571C954.902 141.571 957.779 140.414 959.845 138.099C961.935 135.785 963.386 132.805 964.247 129.21C965.107 125.615 965.525 121.946 965.525 118.204C965.525 114.461 965.132 110.915 964.32 107.394C963.509 103.873 962.083 100.992 960.017 98.7018C957.951 96.4365 955.001 95.3038 951.214 95.3038C947.427 95.3038 944.476 96.4118 942.386 98.628C940.271 100.844 938.796 103.7 937.96 107.197C937.099 110.693 936.681 114.362 936.681 118.204C936.681 121.823 937.074 125.443 937.886 129.038C938.697 132.633 940.148 135.637 942.238 138.001C944.353 140.365 947.329 141.571 951.238 141.571H951.214Z" fill="#171716"/>
<path d="M1024.91 159.99L993.263 77.2549H1017.63L1033.93 124.704H1034.33L1050.16 77.2549H1074.95L1043.3 159.99H1024.93H1024.91Z" fill="#171716"/>
<path d="M97.2224 87.3997L125.28 0.971436H104.206L76.1732 87.3997H97.2224Z" fill="#28A0CB"/>
<path d="M71.2553 87.3997L99.2881 0.971436H78.2143L50.1815 87.3997H71.2553Z" fill="#28A0CB"/>
<path d="M126.337 87.4243H217.099L210.608 67.3562H119.845L126.362 87.4243H126.337Z" fill="#34A37E"/>
<path d="M118.321 62.6777H209.083L202.567 42.6096H111.804L118.321 62.6777Z" fill="#34A37E"/>
<path d="M135.165 115.101L163.321 201.505L180.362 189.095L152.206 102.691L135.19 115.101H135.165Z" fill="#34A37E"/>
<path d="M156.19 99.8099L184.345 186.213L201.362 173.803L173.206 87.3997L156.19 99.8099Z" fill="#34A37E"/>
<path d="M111.706 132.46L38.3536 185.992L55.4192 198.377L128.772 144.846L111.706 132.46Z" fill="#34A37E"/>
<path d="M132.755 147.727L59.4027 201.258L76.4683 213.619L149.821 160.088L132.755 147.727Z" fill="#34A37E"/>
<path d="M88.3945 115.052L14.6978 62.0129L8.27979 82.1056L81.9765 135.145L88.3945 115.052Z" fill="#34A37E"/>
<path d="M80.4765 139.848L6.77985 86.8088L0.361816 106.902L74.0585 159.94L80.4519 139.848H80.4765Z" fill="#34A37E"/>
</g>
<defs>
<clipPath id="clip0_1531_9426">
<rect width="1075" height="214" fill="white"/>
</clipPath>
</defs>
</svg>
