<svg xmlns="http://www.w3.org/2000/svg" xmlns:xlink="http://www.w3.org/1999/xlink" version="1.1" x="0px" y="0px" viewBox="0 0 100 125" style="enable-background:new 0 0 100 100;" xml:space="preserve"><g><path d="M55.6,37.9c3.7,0,6.7-2.9,6.8-6.6c0-3.7-2.9-6.7-6.6-6.8c-3.7,0-6.7,2.9-6.8,6.6C49,34.9,51.9,37.9,55.6,37.9z"/><path d="M19.6,44c3.7,0,6.7-2.9,6.8-6.6c0-3.7-2.9-6.7-6.6-6.8c-3.7,0-6.7,2.9-6.8,6.6C12.9,41,15.9,44,19.6,44z"/><path d="M80.6,22c0.4,0.4,0.6,1,0.5,1.5l-0.9,3.6c-0.3,1.4,1.1,2.4,2.3,1.7l3.2-1.9c0.5-0.3,1.1-0.3,1.6,0l3.2,1.9   c1.2,0.7,2.7-0.3,2.3-1.7L92,23.5c-0.1-0.6,0.1-1.2,0.5-1.5l2.8-2.4c1.1-0.9,0.5-2.6-0.9-2.7l-3.7-0.3c-0.6,0-1.1-0.4-1.3-1   L88,12.2c-0.5-1.3-2.4-1.3-2.9,0l-1.4,3.4c-0.2,0.5-0.7,0.9-1.3,1l-3.7,0.3c-1.4,0.1-1.9,1.8-0.9,2.7L80.6,22z"/><path d="M97.1,72.9L88,60.2c-0.5-0.7-1.5-1-2.3-0.6l-6.3,2.6c-0.4,0.2-0.7,0.4-0.9,0.8l-6.1,10.1c-0.3,0.5-0.8,0.8-1.4,0.9   l-12.6,1.1c-0.4,0-0.9,0.2-1.2,0.5l-4.8,4.8c-0.3,0.3-0.8,0.5-1.2,0.5L40,81.8c-0.6,0-1.2,0.4-1.5,1L36.7,86   c-0.7,1.3,0.2,2.8,1.6,2.8h57.3c1,0,1.9-0.8,1.9-1.9V74C97.5,73.6,97.4,73.2,97.1,72.9z"/><path d="M37.9,56.7c0.4-0.2,0.8-0.4,1.1-0.7c0.1,0,0.1,0,0.2,0c1,0,1.9-0.5,2.5-1.3l1.8-2.6c1.5-2.1,3.5-3.8,5.8-4.9v10.7L48,66.8   l-4.7,11.3l7.4-0.5l0.7-0.7l3.2-7.8c0.1-0.3,0.2-0.5,0.2-0.8l1.1-7.3l7.3,3l-0.8,7.4l7.1-0.6l0.9-8.7c0.2-1.5-0.7-3-2.1-3.6l-6-2.4   V45.2l0.3-0.1c4.2-1.1,8-3.5,10.7-6.9l2.7-3.3c1.1-1.3,0.9-3.3-0.5-4.3c-1.3-1.1-3.3-0.9-4.3,0.5l-2.7,3.3c-1.9,2.3-4.5,4-7.4,4.8   l-0.8,0.2c-1.2,0.3-2.3,0.4-3.5,0.4l-1.6,0c-2,0-4.1,0.3-6,0.9c-4.4,1.3-8.2,4.2-10.8,8L37,50.7c-0.4,0-0.8,0-1.2,0.2   c-2.4,0.9-5.1,0.3-6.9-1.5l-0.5-0.5C26.5,47,24,46,21.3,46h-3.7c-3.6,0-7.1,1.5-9.5,4c-2.4,2.5-4.2,5.6-5.4,9.1   C2.1,60.7,3,62.4,4.6,63c0.3,0.1,0.7,0.2,1,0.2c1.3,0,2.5-0.8,2.9-2.1c0.9-2.6,2.2-4.9,4-6.8c0.1-0.1,0.3-0.2,0.4-0.4v13.4l-1,6.8   l-5.8,9.6c-1,1.6-0.5,3.7,1.2,4.7c0.6,0.3,1.2,0.5,1.8,0.5c1.2,0,2.3-0.6,2.9-1.7L18.2,77c0.2-0.4,0.4-0.8,0.5-1.3l0.9-6.4l4.4,5.1   l1.7,11.5c0.2,1.7,1.7,2.9,3.4,2.9c0.2,0,0.3,0,0.5,0c1.9-0.3,3.2-2,2.9-3.9l-1.8-12.5c-0.1-0.6-0.4-1.2-0.8-1.7l-4.2-4.9l0.5-10.8   C29.5,57.5,33.9,58.2,37.9,56.7z"/></g></svg>