<?xml version="1.0" encoding="iso-8859-1"?>
<!-- Generator: Adobe Illustrator 29.6.1, SVG Export Plug-In . SVG Version: 9.03 Build 0)  -->
<svg version="1.1" id="Layer_1" xmlns="http://www.w3.org/2000/svg" xmlns:xlink="http://www.w3.org/1999/xlink" x="0px" y="0px"
	 viewBox="0 0 1088.331 236.999" style="enable-background:new 0 0 1088.331 236.999;" xml:space="preserve">
<g>
	<g>
		<g>
			<path d="M450.613,131.446c-6.878,0-11.562-4.086-11.562-9.868c0-6.478,5.183-10.465,15.846-12.654l12.462-2.396v10.268
				C467.359,125.467,460.48,131.446,450.613,131.446 M432.973,157.16c16.242,0,30.097-7.076,35.68-18.238
				c0,5.781,0.4,10.767,1.492,15.649h41.467c-1.497-5.584-2.594-15.846-2.594-26.411V89.189c0-30.7-17.141-44.357-54.319-44.357
				c-33.091,0-53.721,13.954-55.618,38.774h42.163c0.598-8.573,4.882-12.857,13.257-12.857c7.273,0,11.36,3.889,11.36,11.958v4.684
				l-29.005,4.388c-15.649,2.392-25.813,5.979-32.291,11.562c-5.984,5.183-8.771,12.259-8.771,21.825
				C395.795,144.303,410.643,157.16,432.973,157.16 M311.172,154.571h47.445l36.58-107.145h-44.056l-13.559,58.306
				c-1.492,6.181-1.69,9.67-2.392,14.552h-0.395c-0.598-4.882-0.899-8.37-2.392-14.552l-13.756-58.306h-44.056L311.172,154.571z
				 M211.004,131.446c-6.878,0-11.562-4.086-11.562-9.868c0-6.478,5.183-10.465,15.846-12.654l12.462-2.396v10.268
				C227.75,125.467,220.872,131.446,211.004,131.446 M193.364,157.16c16.242,0,30.097-7.076,35.68-18.238
				c0,5.781,0.4,10.767,1.492,15.649h41.467c-1.497-5.584-2.594-15.846-2.594-26.411V89.189c0-30.7-17.141-44.357-54.319-44.357
				c-33.091,0-53.726,13.954-55.618,38.774h42.163c0.598-8.573,4.882-12.857,13.257-12.857c7.273,0,11.36,3.889,11.36,11.958v4.684
				l-29.104,4.289c-15.649,2.392-25.813,5.979-32.296,11.562c-5.979,5.183-8.771,12.259-8.771,21.825
				C156.082,144.303,171.035,157.16,193.364,157.16 M0,154.571h41.264V81.713V61.578h0.4c1.892,4.887,5.579,11.76,8.771,18.238
				l42.756,74.854h46.25V2.372H98.177V76.53v19.038h-0.4c-1.892-5.183-6.176-13.954-9.171-19.735L48.439,2.273H0.099L0,154.571z"/>
		</g>
		<rect y="195.735" width="508.519" height="41.264"/>
	</g>
	<path d="M1031.576,145.252c-14.29,0-23.248-7.249-23.248-18.767c0-11.73,7.891-17.917,26.025-20.476l30.285-4.269v6.829
		C1064.637,130.325,1051.415,145.252,1031.576,145.252 M1028.166,157.625c18.342,0,31.994-8.958,37.113-23.891
		c0.213,7.896,0.85,15.575,1.917,21.331h15.57c-2.342-8.746-3.409-20.689-3.409-37.326v-27.73c0-30.927-12.373-44.15-40.953-44.15
		c-24.528,0-41.17,13.865-42.45,35.834h16c0.855-15.145,10.663-23.466,26.663-23.466c18.129,0,25.808,8.746,25.808,30.715v1.71
		l-23.673,2.772c-16.854,2.135-27.305,5.119-34.984,9.596c-8.533,5.337-13.01,13.653-13.01,23.891
		C992.757,145.252,1006.835,157.625,1028.166,157.625 M917.463,60.787h19.626v64.631c0,18.984,7.036,31.569,27.725,31.569
		c5.974,0,10.238-0.642,14.72-1.922v-13.653c-3.627,0.855-6.611,1.497-10.881,1.497c-11.088,0-16.637-5.549-16.637-18.134V60.786
		h27.518V48.418h-27.518V13.864l-14.927,6.399v28.155h-19.626V60.787z M858.381,145.252c-14.29,0-23.248-7.249-23.248-18.767
		c0-11.73,7.891-17.917,26.02-20.476l30.29-4.269v6.829C891.443,130.325,878.22,145.252,858.381,145.252 M854.972,157.625
		c18.342,0,31.994-8.958,37.113-23.891c0.212,7.896,0.85,15.575,1.917,21.331h15.57c-2.347-8.746-3.41-20.689-3.41-37.326v-27.73
		c0-30.927-12.373-44.15-40.953-44.15c-24.533,0-41.17,13.865-42.45,35.834h16c0.855-15.145,10.663-23.466,26.663-23.466
		c18.129,0,25.808,8.746,25.808,30.715v1.71l-23.678,2.772c-16.85,2.135-27.3,5.119-34.979,9.596
		c-8.533,5.337-13.01,13.653-13.01,23.891C819.563,145.252,833.641,157.625,854.972,157.625 M775.626,74.44V48.42h-13.865v106.646
		h14.72v-48.844c0-13.44,1.917-27.73,11.73-37.538c5.332-5.119,12.585-8.109,22.823-8.109h1.705V46.073
		c-1.492-0.212-2.56-0.212-4.052-0.212C792.263,45.86,780.533,58.015,775.626,74.44 M677.938,60.787h19.622v64.631
		c0,18.984,7.041,31.569,27.73,31.569c5.969,0,10.238-0.642,14.715-1.922v-13.653c-3.627,0.855-6.611,1.497-10.876,1.497
		c-11.093,0-16.637-5.549-16.637-18.134V60.786h27.513V48.418h-27.513V13.864l-14.932,6.399v28.155h-19.622V60.787z
		 M610.323,158.692c35.621,0,54.175-19.197,54.175-43.937c0-27.093-17.917-37.331-41.165-42.02l-22.394-4.482
		c-18.347-3.839-26.875-12.585-26.875-27.725c0-16.854,13.435-27.305,33.911-27.305c23.678,0,36.476,11.093,38.606,33.916
		l16.637-3.202C660.658,13.222,638.052,0,608.4,0c-31.564,0-51.403,16.85-51.403,42.02c0,24.528,15.57,36.259,37.326,40.523
		l22.398,4.482c18.772,3.627,30.715,9.813,30.715,29.435c0,19.834-16.849,28.58-36.471,28.58c-28.585,0-41.383-17.274-43.73-37.751
		l-16.637,2.347C552.733,137.791,572.355,158.692,610.323,158.692"/>
</g>
</svg>
